<svg xmlns="http://www.w3.org/2000/svg" width="480" height="240" viewBox="0 0 480 240" role="img" aria-label="Top Languages">
  <rect width="480" height="240" fill="#0D1117" rx="12"/>
  <text x="20" y="30" font-family="-apple-system, BlinkMacSystemFont, 'Segoe UI', Roboto, sans-serif" font-size="15" font-weight="700" fill="#A371F7">Top Languages</text>
  <path d="M 110,55 A 75,75 0 1 1 46.8380181300974,170.4421073420525 L 72.10281087805845,154.2652644052315 A 45,45 0 1 0 110,85 Z" fill="#3178C6"/>
  <path d="M 46.8380181300974,170.4421073420525 A 75,75 0 0 1 47.78139507063715,88.12106495332212 L 72.6688370423823,104.87263897199327 A 45,45 0 0 0 72.10281087805845,154.2652644052315 Z" fill="#AA6746"/>
  <path d="M 47.78139507063715,88.12106495332212 A 75,75 0 0 1 70.10757957922362,66.48941196168923 L 86.06454774753416,91.89364717701355 A 45,45 0 0 0 72.6688370423823,104.87263897199327 Z" fill="#F1E05A"/>
  <path d="M 70.10757957922362,66.48941196168923 A 75,75 0 0 1 84.90414883083857,59.323283507966366 L 94.94248929850315,87.59397010477983 A 45,45 0 0 0 86.06454774753416,91.89364717701355 Z" fill="#3572A5"/>
  <path d="M 84.90414883083857,59.323283507966366 A 75,75 0 0 1 94.52809859080935,56.61321463107758 L 100.71685915448562,85.96792877864655 A 45,45 0 0 0 94.94248929850315,87.59397010477983 Z" fill="#89E051"/>
  <path d="M 94.52809859080935,56.61321463107758 A 75,75 0 0 1 102.38458565905951,55.38763196080828 L 105.4307513954357,85.23257917648496 A 45,45 0 0 0 100.71685915448562,85.96792877864655 Z" fill="#B07219"/>
  <path d="M 102.38458565905951,55.38763196080828 A 75,75 0 0 1 106.24098522007273,55.094260514401924 L 107.74459113204364,85.05655630864115 A 45,45 0 0 0 105.4307513954357,85.23257917648496 Z" fill="#A371F7"/>
  <path d="M 106.24098522007273,55.094260514401924 A 75,75 0 0 1 109.99999999999991,55 L 109.99999999999996,85 A 45,45 0 0 0 107.74459113204364,85.05655630864115 Z" fill="#A371F7"/>
  
      <rect x="220" y="46" width="12" height="12" rx="3" fill="#3178C6"/>
      <text x="240" y="56" font-family="-apple-system, BlinkMacSystemFont, 'Segoe UI', Roboto, sans-serif" font-size="12" font-weight="500" fill="#E6EDF3">TypeScript</text>
      <text x="460" y="56" font-family="-apple-system, BlinkMacSystemFont, 'Segoe UI', Roboto, sans-serif" font-size="12" font-weight="500" fill="#7D8590" text-anchor="end">65.9%</text>
      <rect x="220" y="66" width="12" height="12" rx="3" fill="#AA6746"/>
      <text x="240" y="76" font-family="-apple-system, BlinkMacSystemFont, 'Segoe UI', Roboto, sans-serif" font-size="12" font-weight="500" fill="#E6EDF3">Solidity</text>
      <text x="460" y="76" font-family="-apple-system, BlinkMacSystemFont, 'Segoe UI', Roboto, sans-serif" font-size="12" font-weight="500" fill="#7D8590" text-anchor="end">18.5%</text>
      <rect x="220" y="86" width="12" height="12" rx="3" fill="#F1E05A"/>
      <text x="240" y="96" font-family="-apple-system, BlinkMacSystemFont, 'Segoe UI', Roboto, sans-serif" font-size="12" font-weight="500" fill="#E6EDF3">JavaScript</text>
      <text x="460" y="96" font-family="-apple-system, BlinkMacSystemFont, 'Segoe UI', Roboto, sans-serif" font-size="12" font-weight="500" fill="#7D8590" text-anchor="end">6.6%</text>
      <rect x="220" y="106" width="12" height="12" rx="3" fill="#3572A5"/>
      <text x="240" y="116" font-family="-apple-system, BlinkMacSystemFont, 'Segoe UI', Roboto, sans-serif" font-size="12" font-weight="500" fill="#E6EDF3">Python</text>
      <text x="460" y="116" font-family="-apple-system, BlinkMacSystemFont, 'Segoe UI', Roboto, sans-serif" font-size="12" font-weight="500" fill="#7D8590" text-anchor="end">3.5%</text>
      <rect x="220" y="126" width="12" height="12" rx="3" fill="#89E051"/>
      <text x="240" y="136" font-family="-apple-system, BlinkMacSystemFont, 'Segoe UI', Roboto, sans-serif" font-size="12" font-weight="500" fill="#E6EDF3">Shell</text>
      <text x="460" y="136" font-family="-apple-system, BlinkMacSystemFont, 'Segoe UI', Roboto, sans-serif" font-size="12" font-weight="500" fill="#7D8590" text-anchor="end">2.1%</text>
      <rect x="220" y="146" width="12" height="12" rx="3" fill="#B07219"/>
      <text x="240" y="156" font-family="-apple-system, BlinkMacSystemFont, 'Segoe UI', Roboto, sans-serif" font-size="12" font-weight="500" fill="#E6EDF3">Java</text>
      <text x="460" y="156" font-family="-apple-system, BlinkMacSystemFont, 'Segoe UI', Roboto, sans-serif" font-size="12" font-weight="500" fill="#7D8590" text-anchor="end">1.7%</text>
      <rect x="220" y="166" width="12" height="12" rx="3" fill="#A371F7"/>
      <text x="240" y="176" font-family="-apple-system, BlinkMacSystemFont, 'Segoe UI', Roboto, sans-serif" font-size="12" font-weight="500" fill="#E6EDF3">Clarity</text>
      <text x="460" y="176" font-family="-apple-system, BlinkMacSystemFont, 'Segoe UI', Roboto, sans-serif" font-size="12" font-weight="500" fill="#7D8590" text-anchor="end">0.8%</text>
      <rect x="220" y="186" width="12" height="12" rx="3" fill="#A371F7"/>
      <text x="240" y="196" font-family="-apple-system, BlinkMacSystemFont, 'Segoe UI', Roboto, sans-serif" font-size="12" font-weight="500" fill="#E6EDF3">EJS</text>
      <text x="460" y="196" font-family="-apple-system, BlinkMacSystemFont, 'Segoe UI', Roboto, sans-serif" font-size="12" font-weight="500" fill="#7D8590" text-anchor="end">0.8%</text>
</svg>