<svg xmlns="http://www.w3.org/2000/svg" width="480" height="240" viewBox="0 0 480 240" role="img" aria-label="Top Languages">
  <rect width="480" height="240" fill="#0D1117" rx="12"/>
  <text x="20" y="30" font-family="-apple-system, BlinkMacSystemFont, 'Segoe UI', Roboto, sans-serif" font-size="15" font-weight="700" fill="#A371F7">Top Languages</text>
  <path d="M 110,55 A 75,75 0 1 1 46.831112010274786,170.43131942123023 L 72.09866720616486,154.25879165273813 A 45,45 0 1 0 110,85 Z" fill="#3178C6"/>
  <path d="M 46.831112010274786,170.43131942123023 A 75,75 0 0 1 47.78466470115859,88.11620774508665 L 72.67079882069515,104.869724647052 A 45,45 0 0 0 72.09866720616486,154.25879165273813 Z" fill="#AA6746"/>
  <path d="M 47.78466470115859,88.11620774508665 A 75,75 0 0 1 70.11042189671096,66.48762672721477 L 86.06625313802658,91.89257603632886 A 45,45 0 0 0 72.67079882069515,104.869724647052 Z" fill="#F1E05A"/>
  <path d="M 70.11042189671096,66.48762672721477 A 75,75 0 0 1 84.9060730677015,59.322600280454125 L 94.9436438406209,87.59356016827248 A 45,45 0 0 0 86.06625313802658,91.89257603632886 Z" fill="#3572A5"/>
  <path d="M 84.9060730677015,59.322600280454125 A 75,75 0 0 1 94.52931536741042,56.6129581124913 L 100.71758922044626,85.96777486749477 A 45,45 0 0 0 94.9436438406209,87.59356016827248 Z" fill="#89E051"/>
  <path d="M 94.52931536741042,56.6129581124913 A 75,75 0 0 1 102.38519124059944,55.3875701537756 L 105.43111474435966,85.23254209226536 A 45,45 0 0 0 100.71758922044626,85.96777486749477 Z" fill="#B07219"/>
  <path d="M 102.38519124059944,55.3875701537756 A 75,75 0 0 1 106.24128492241991,55.09424547495986 L 107.74477095345195,85.05654728497592 A 45,45 0 0 0 105.43111474435966,85.23254209226536 Z" fill="#A371F7"/>
  <path d="M 106.24128492241991,55.09424547495986 A 75,75 0 0 1 109.99999999999991,55 L 109.99999999999996,85 A 45,45 0 0 0 107.74477095345195,85.05654728497592 Z" fill="#A371F7"/>
  
      <rect x="220" y="46" width="12" height="12" rx="3" fill="#3178C6"/>
      <text x="240" y="56" font-family="-apple-system, BlinkMacSystemFont, 'Segoe UI', Roboto, sans-serif" font-size="12" font-weight="500" fill="#E6EDF3">TypeScript</text>
      <text x="460" y="56" font-family="-apple-system, BlinkMacSystemFont, 'Segoe UI', Roboto, sans-serif" font-size="12" font-weight="500" fill="#7D8590" text-anchor="end">65.9%</text>
      <rect x="220" y="66" width="12" height="12" rx="3" fill="#AA6746"/>
      <text x="240" y="76" font-family="-apple-system, BlinkMacSystemFont, 'Segoe UI', Roboto, sans-serif" font-size="12" font-weight="500" fill="#E6EDF3">Solidity</text>
      <text x="460" y="76" font-family="-apple-system, BlinkMacSystemFont, 'Segoe UI', Roboto, sans-serif" font-size="12" font-weight="500" fill="#7D8590" text-anchor="end">18.5%</text>
      <rect x="220" y="86" width="12" height="12" rx="3" fill="#F1E05A"/>
      <text x="240" y="96" font-family="-apple-system, BlinkMacSystemFont, 'Segoe UI', Roboto, sans-serif" font-size="12" font-weight="500" fill="#E6EDF3">JavaScript</text>
      <text x="460" y="96" font-family="-apple-system, BlinkMacSystemFont, 'Segoe UI', Roboto, sans-serif" font-size="12" font-weight="500" fill="#7D8590" text-anchor="end">6.6%</text>
      <rect x="220" y="106" width="12" height="12" rx="3" fill="#3572A5"/>
      <text x="240" y="116" font-family="-apple-system, BlinkMacSystemFont, 'Segoe UI', Roboto, sans-serif" font-size="12" font-weight="500" fill="#E6EDF3">Python</text>
      <text x="460" y="116" font-family="-apple-system, BlinkMacSystemFont, 'Segoe UI', Roboto, sans-serif" font-size="12" font-weight="500" fill="#7D8590" text-anchor="end">3.5%</text>
      <rect x="220" y="126" width="12" height="12" rx="3" fill="#89E051"/>
      <text x="240" y="136" font-family="-apple-system, BlinkMacSystemFont, 'Segoe UI', Roboto, sans-serif" font-size="12" font-weight="500" fill="#E6EDF3">Shell</text>
      <text x="460" y="136" font-family="-apple-system, BlinkMacSystemFont, 'Segoe UI', Roboto, sans-serif" font-size="12" font-weight="500" fill="#7D8590" text-anchor="end">2.1%</text>
      <rect x="220" y="146" width="12" height="12" rx="3" fill="#B07219"/>
      <text x="240" y="156" font-family="-apple-system, BlinkMacSystemFont, 'Segoe UI', Roboto, sans-serif" font-size="12" font-weight="500" fill="#E6EDF3">Java</text>
      <text x="460" y="156" font-family="-apple-system, BlinkMacSystemFont, 'Segoe UI', Roboto, sans-serif" font-size="12" font-weight="500" fill="#7D8590" text-anchor="end">1.7%</text>
      <rect x="220" y="166" width="12" height="12" rx="3" fill="#A371F7"/>
      <text x="240" y="176" font-family="-apple-system, BlinkMacSystemFont, 'Segoe UI', Roboto, sans-serif" font-size="12" font-weight="500" fill="#E6EDF3">Clarity</text>
      <text x="460" y="176" font-family="-apple-system, BlinkMacSystemFont, 'Segoe UI', Roboto, sans-serif" font-size="12" font-weight="500" fill="#7D8590" text-anchor="end">0.8%</text>
      <rect x="220" y="186" width="12" height="12" rx="3" fill="#A371F7"/>
      <text x="240" y="196" font-family="-apple-system, BlinkMacSystemFont, 'Segoe UI', Roboto, sans-serif" font-size="12" font-weight="500" fill="#E6EDF3">EJS</text>
      <text x="460" y="196" font-family="-apple-system, BlinkMacSystemFont, 'Segoe UI', Roboto, sans-serif" font-size="12" font-weight="500" fill="#7D8590" text-anchor="end">0.8%</text>
</svg>