<svg xmlns="http://www.w3.org/2000/svg" width="480" height="240" viewBox="0 0 480 240" role="img" aria-label="Top Languages">
  <rect width="480" height="240" fill="#0D1117" rx="12"/>
  <text x="20" y="30" font-family="-apple-system, BlinkMacSystemFont, 'Segoe UI', Roboto, sans-serif" font-size="15" font-weight="700" fill="#A371F7">Top Languages</text>
  <path d="M 110,55 A 75,75 0 1 1 98.78806799244063,204.1572152973523 L 103.27284079546438,174.4943291784114 A 45,45 0 1 0 110,85 Z" fill="#3178C6"/>
  <path d="M 98.78806799244063,204.1572152973523 A 75,75 0 0 1 35.08853273799369,133.64308559511795 L 65.05311964279622,132.1858513570708 A 45,45 0 0 0 103.27284079546438,174.4943291784114 Z" fill="#B07219"/>
  <path d="M 35.08853273799369,133.64308559511795 A 75,75 0 0 1 70.1724076623159,66.4487381039271 L 86.10344459738954,91.86924286235626 A 45,45 0 0 0 65.05311964279622,132.1858513570708 Z" fill="#AA6746"/>
  <path d="M 70.1724076623159,66.4487381039271 A 75,75 0 0 1 94.46371121800884,56.62681872180697 L 100.6782267308053,85.97609123308419 A 45,45 0 0 0 86.10344459738954,91.86924286235626 Z" fill="#F1E05A"/>
  <path d="M 94.46371121800884,56.62681872180697 A 75,75 0 0 1 102.12651860134481,55.41442303859927 L 105.27591116080688,85.24865382315957 A 45,45 0 0 0 100.6782267308053,85.97609123308419 Z" fill="#3572A5"/>
  <path d="M 102.12651860134481,55.41442303859927 A 75,75 0 0 1 105.6415724887773,55.12674636674711 L 107.38494349326638,85.07604782004827 A 45,45 0 0 0 105.27591116080688,85.24865382315957 Z" fill="#A371F7"/>
  <path d="M 105.6415724887773,55.12674636674711 A 75,75 0 0 1 109.0683523168868,55.00578667260686 L 109.44101139013208,85.00347200356413 A 45,45 0 0 0 107.38494349326638,85.07604782004827 Z" fill="#A371F7"/>
  <path d="M 109.0683523168868,55.00578667260686 A 75,75 0 0 1 109.99999999999999,55 L 109.99999999999999,85 A 45,45 0 0 0 109.44101139013208,85.00347200356413 Z" fill="#C6538C"/>
  
      <rect x="220" y="46" width="12" height="12" rx="3" fill="#3178C6"/>
      <text x="240" y="56" font-family="-apple-system, BlinkMacSystemFont, 'Segoe UI', Roboto, sans-serif" font-size="12" font-weight="500" fill="#E6EDF3">TypeScript</text>
      <text x="460" y="56" font-family="-apple-system, BlinkMacSystemFont, 'Segoe UI', Roboto, sans-serif" font-size="12" font-weight="500" fill="#7D8590" text-anchor="end">52.4%</text>
      <rect x="220" y="66" width="12" height="12" rx="3" fill="#B07219"/>
      <text x="240" y="76" font-family="-apple-system, BlinkMacSystemFont, 'Segoe UI', Roboto, sans-serif" font-size="12" font-weight="500" fill="#E6EDF3">Java</text>
      <text x="460" y="76" font-family="-apple-system, BlinkMacSystemFont, 'Segoe UI', Roboto, sans-serif" font-size="12" font-weight="500" fill="#7D8590" text-anchor="end">21.8%</text>
      <rect x="220" y="86" width="12" height="12" rx="3" fill="#AA6746"/>
      <text x="240" y="96" font-family="-apple-system, BlinkMacSystemFont, 'Segoe UI', Roboto, sans-serif" font-size="12" font-weight="500" fill="#E6EDF3">Solidity</text>
      <text x="460" y="96" font-family="-apple-system, BlinkMacSystemFont, 'Segoe UI', Roboto, sans-serif" font-size="12" font-weight="500" fill="#7D8590" text-anchor="end">16.9%</text>
      <rect x="220" y="106" width="12" height="12" rx="3" fill="#F1E05A"/>
      <text x="240" y="116" font-family="-apple-system, BlinkMacSystemFont, 'Segoe UI', Roboto, sans-serif" font-size="12" font-weight="500" fill="#E6EDF3">JavaScript</text>
      <text x="460" y="116" font-family="-apple-system, BlinkMacSystemFont, 'Segoe UI', Roboto, sans-serif" font-size="12" font-weight="500" fill="#7D8590" text-anchor="end">5.6%</text>
      <rect x="220" y="126" width="12" height="12" rx="3" fill="#3572A5"/>
      <text x="240" y="136" font-family="-apple-system, BlinkMacSystemFont, 'Segoe UI', Roboto, sans-serif" font-size="12" font-weight="500" fill="#E6EDF3">Python</text>
      <text x="460" y="136" font-family="-apple-system, BlinkMacSystemFont, 'Segoe UI', Roboto, sans-serif" font-size="12" font-weight="500" fill="#7D8590" text-anchor="end">1.6%</text>
      <rect x="220" y="146" width="12" height="12" rx="3" fill="#A371F7"/>
      <text x="240" y="156" font-family="-apple-system, BlinkMacSystemFont, 'Segoe UI', Roboto, sans-serif" font-size="12" font-weight="500" fill="#E6EDF3">Clarity</text>
      <text x="460" y="156" font-family="-apple-system, BlinkMacSystemFont, 'Segoe UI', Roboto, sans-serif" font-size="12" font-weight="500" fill="#7D8590" text-anchor="end">0.7%</text>
      <rect x="220" y="166" width="12" height="12" rx="3" fill="#A371F7"/>
      <text x="240" y="176" font-family="-apple-system, BlinkMacSystemFont, 'Segoe UI', Roboto, sans-serif" font-size="12" font-weight="500" fill="#E6EDF3">EJS</text>
      <text x="460" y="176" font-family="-apple-system, BlinkMacSystemFont, 'Segoe UI', Roboto, sans-serif" font-size="12" font-weight="500" fill="#7D8590" text-anchor="end">0.7%</text>
      <rect x="220" y="186" width="12" height="12" rx="3" fill="#C6538C"/>
      <text x="240" y="196" font-family="-apple-system, BlinkMacSystemFont, 'Segoe UI', Roboto, sans-serif" font-size="12" font-weight="500" fill="#E6EDF3">SCSS</text>
      <text x="460" y="196" font-family="-apple-system, BlinkMacSystemFont, 'Segoe UI', Roboto, sans-serif" font-size="12" font-weight="500" fill="#7D8590" text-anchor="end">0.2%</text>
</svg>