<svg xmlns="http://www.w3.org/2000/svg" width="480" height="240" viewBox="0 0 480 240" role="img" aria-label="Top Languages">
  <rect width="480" height="240" fill="#0D1117" rx="12"/>
  <text x="20" y="30" font-family="-apple-system, BlinkMacSystemFont, 'Segoe UI', Roboto, sans-serif" font-size="15" font-weight="700" fill="#A371F7">Top Languages</text>
  <path d="M 110,55 A 75,75 0 1 1 93.06276380301043,203.06250769038377 L 99.83765828180626,173.83750461423026 A 45,45 0 1 0 110,85 Z" fill="#3178C6"/>
  <path d="M 93.06276380301043,203.06250769038377 A 75,75 0 0 1 35.400618446670876,137.74159362539908 L 65.24037106800253,134.64495617523943 A 45,45 0 0 0 99.83765828180626,173.83750461423026 Z" fill="#B07219"/>
  <path d="M 35.400618446670876,137.74159362539908 A 75,75 0 0 1 60.71615350236167,73.46591758596216 L 80.429692101417,96.0795505515773 A 45,45 0 0 0 65.24037106800253,134.64495617523943 Z" fill="#AA6746"/>
  <path d="M 60.71615350236167,73.46591758596216 A 75,75 0 0 1 82.55486889856104,60.201971526232725 L 93.53292133913662,88.12118291573964 A 45,45 0 0 0 80.429692101417,96.0795505515773 Z" fill="#F1E05A"/>
  <path d="M 82.55486889856104,60.201971526232725 A 75,75 0 0 1 95.56372677803918,56.40248635000705 L 101.33823606682351,85.84149181000424 A 45,45 0 0 0 93.53292133913662,88.12118291573964 Z" fill="#3572A5"/>
  <path d="M 95.56372677803918,56.40248635000705 A 75,75 0 0 1 103.72300130619445,55.26313301055521 L 106.23380078371667,85.15787980633311 A 45,45 0 0 0 101.33823606682351,85.84149181000424 Z" fill="#89E051"/>
  <path d="M 103.72300130619445,55.26313301055521 A 75,75 0 0 1 106.90293564887955,55.0639726673143 L 108.14176138932773,85.03838360038858 A 45,45 0 0 0 106.23380078371667,85.15787980633311 Z" fill="#A371F7"/>
  <path d="M 106.90293564887955,55.0639726673143 A 75,75 0 0 1 109.99999999999999,55 L 109.99999999999999,85 A 45,45 0 0 0 108.14176138932773,85.03838360038858 Z" fill="#A371F7"/>
  
      <rect x="220" y="46" width="12" height="12" rx="3" fill="#3178C6"/>
      <text x="240" y="56" font-family="-apple-system, BlinkMacSystemFont, 'Segoe UI', Roboto, sans-serif" font-size="12" font-weight="500" fill="#E6EDF3">TypeScript</text>
      <text x="460" y="56" font-family="-apple-system, BlinkMacSystemFont, 'Segoe UI', Roboto, sans-serif" font-size="12" font-weight="500" fill="#7D8590" text-anchor="end">53.6%</text>
      <rect x="220" y="66" width="12" height="12" rx="3" fill="#B07219"/>
      <text x="240" y="76" font-family="-apple-system, BlinkMacSystemFont, 'Segoe UI', Roboto, sans-serif" font-size="12" font-weight="500" fill="#E6EDF3">Java</text>
      <text x="460" y="76" font-family="-apple-system, BlinkMacSystemFont, 'Segoe UI', Roboto, sans-serif" font-size="12" font-weight="500" fill="#7D8590" text-anchor="end">19.7%</text>
      <rect x="220" y="86" width="12" height="12" rx="3" fill="#AA6746"/>
      <text x="240" y="96" font-family="-apple-system, BlinkMacSystemFont, 'Segoe UI', Roboto, sans-serif" font-size="12" font-weight="500" fill="#E6EDF3">Solidity</text>
      <text x="460" y="96" font-family="-apple-system, BlinkMacSystemFont, 'Segoe UI', Roboto, sans-serif" font-size="12" font-weight="500" fill="#7D8590" text-anchor="end">15.2%</text>
      <rect x="220" y="106" width="12" height="12" rx="3" fill="#F1E05A"/>
      <text x="240" y="116" font-family="-apple-system, BlinkMacSystemFont, 'Segoe UI', Roboto, sans-serif" font-size="12" font-weight="500" fill="#E6EDF3">JavaScript</text>
      <text x="460" y="116" font-family="-apple-system, BlinkMacSystemFont, 'Segoe UI', Roboto, sans-serif" font-size="12" font-weight="500" fill="#7D8590" text-anchor="end">5.4%</text>
      <rect x="220" y="126" width="12" height="12" rx="3" fill="#3572A5"/>
      <text x="240" y="136" font-family="-apple-system, BlinkMacSystemFont, 'Segoe UI', Roboto, sans-serif" font-size="12" font-weight="500" fill="#E6EDF3">Python</text>
      <text x="460" y="136" font-family="-apple-system, BlinkMacSystemFont, 'Segoe UI', Roboto, sans-serif" font-size="12" font-weight="500" fill="#7D8590" text-anchor="end">2.9%</text>
      <rect x="220" y="146" width="12" height="12" rx="3" fill="#89E051"/>
      <text x="240" y="156" font-family="-apple-system, BlinkMacSystemFont, 'Segoe UI', Roboto, sans-serif" font-size="12" font-weight="500" fill="#E6EDF3">Shell</text>
      <text x="460" y="156" font-family="-apple-system, BlinkMacSystemFont, 'Segoe UI', Roboto, sans-serif" font-size="12" font-weight="500" fill="#7D8590" text-anchor="end">1.7%</text>
      <rect x="220" y="166" width="12" height="12" rx="3" fill="#A371F7"/>
      <text x="240" y="176" font-family="-apple-system, BlinkMacSystemFont, 'Segoe UI', Roboto, sans-serif" font-size="12" font-weight="500" fill="#E6EDF3">Clarity</text>
      <text x="460" y="176" font-family="-apple-system, BlinkMacSystemFont, 'Segoe UI', Roboto, sans-serif" font-size="12" font-weight="500" fill="#7D8590" text-anchor="end">0.7%</text>
      <rect x="220" y="186" width="12" height="12" rx="3" fill="#A371F7"/>
      <text x="240" y="196" font-family="-apple-system, BlinkMacSystemFont, 'Segoe UI', Roboto, sans-serif" font-size="12" font-weight="500" fill="#E6EDF3">EJS</text>
      <text x="460" y="196" font-family="-apple-system, BlinkMacSystemFont, 'Segoe UI', Roboto, sans-serif" font-size="12" font-weight="500" fill="#7D8590" text-anchor="end">0.7%</text>
</svg>