<svg xmlns="http://www.w3.org/2000/svg" width="480" height="240" aria-label="Top Languages" role="img" viewBox="0 0 480 240"><rect width="480" height="240" fill="#0D1117" rx="12"/><text x="20" y="30" fill="#A371F7" font-family="-apple-system, BlinkMacSystemFont, 'Segoe UI', Roboto, sans-serif" font-size="15" font-weight="700">Top Languages</text><path fill="#3178C6" d="M 110,55 A 75,75 0 1 1 93.2269543090448,203.100375773652 L 99.93617258542687,173.86022546419122 A 45,45 0 1 0 110,85 Z"/><path fill="#B07219" d="M 93.2269543090448,203.100375773652 A 75,75 0 0 1 35.40839332331136,137.8161508039558 L 65.24503599398682,134.68969048237346 A 45,45 0 0 0 99.93617258542687,173.86022546419122 Z"/><path fill="#AA6746" d="M 35.40839332331136,137.8161508039558 A 75,75 0 0 1 60.71409521558199,73.46771197287975 L 80.4284571293492,96.08062718372786 A 45,45 0 0 0 65.24503599398682,134.68969048237346 Z"/><path fill="#F1E05A" d="M 60.71409521558199,73.46771197287975 A 75,75 0 0 1 82.52856168008694,60.212321455466 L 93.51713700805216,88.1273928732796 A 45,45 0 0 0 80.4284571293492,96.08062718372786 Z"/><path fill="#3572A5" d="M 82.52856168008694,60.212321455466 A 75,75 0 0 1 95.54938442212162,56.405301077996256 L 101.32963065327297,85.84318064679775 A 45,45 0 0 0 93.51713700805216,88.1273928732796 Z"/><path fill="#89E051" d="M 95.54938442212162,56.405301077996256 A 75,75 0 0 1 103.71670065688981,55.26366245684184 L 106.23002039413389,85.15819747410511 A 45,45 0 0 0 101.32963065327297,85.84318064679775 Z"/><path fill="#A371F7" d="M 103.71670065688981,55.26366245684184 A 75,75 0 0 1 106.89982138341007,55.064101442998364 L 108.13989283004604,85.03846086579902 A 45,45 0 0 0 106.23002039413389,85.15819747410511 Z"/><path fill="#A371F7" d="M 106.89982138341007,55.064101442998364 A 75,75 0 0 1 109.99999999999999,55 L 109.99999999999999,85 A 45,45 0 0 0 108.13989283004604,85.03846086579902 Z"/><rect width="12" height="12" x="220" y="46" fill="#3178C6" rx="3"/><text x="240" y="56" fill="#E6EDF3" font-family="-apple-system, BlinkMacSystemFont, 'Segoe UI', Roboto, sans-serif" font-size="12" font-weight="500">TypeScript</text><text x="460" y="56" fill="#7D8590" font-family="-apple-system, BlinkMacSystemFont, 'Segoe UI', Roboto, sans-serif" font-size="12" font-weight="500" text-anchor="end">53.6%</text><rect width="12" height="12" x="220" y="66" fill="#B07219" rx="3"/><text x="240" y="76" fill="#E6EDF3" font-family="-apple-system, BlinkMacSystemFont, 'Segoe UI', Roboto, sans-serif" font-size="12" font-weight="500">Java</text><text x="460" y="76" fill="#7D8590" font-family="-apple-system, BlinkMacSystemFont, 'Segoe UI', Roboto, sans-serif" font-size="12" font-weight="500" text-anchor="end">19.7%</text><rect width="12" height="12" x="220" y="86" fill="#AA6746" rx="3"/><text x="240" y="96" fill="#E6EDF3" font-family="-apple-system, BlinkMacSystemFont, 'Segoe UI', Roboto, sans-serif" font-size="12" font-weight="500">Solidity</text><text x="460" y="96" fill="#7D8590" font-family="-apple-system, BlinkMacSystemFont, 'Segoe UI', Roboto, sans-serif" font-size="12" font-weight="500" text-anchor="end">15.2%</text><rect width="12" height="12" x="220" y="106" fill="#F1E05A" rx="3"/><text x="240" y="116" fill="#E6EDF3" font-family="-apple-system, BlinkMacSystemFont, 'Segoe UI', Roboto, sans-serif" font-size="12" font-weight="500">JavaScript</text><text x="460" y="116" fill="#7D8590" font-family="-apple-system, BlinkMacSystemFont, 'Segoe UI', Roboto, sans-serif" font-size="12" font-weight="500" text-anchor="end">5.4%</text><rect width="12" height="12" x="220" y="126" fill="#3572A5" rx="3"/><text x="240" y="136" fill="#E6EDF3" font-family="-apple-system, BlinkMacSystemFont, 'Segoe UI', Roboto, sans-serif" font-size="12" font-weight="500">Python</text><text x="460" y="136" fill="#7D8590" font-family="-apple-system, BlinkMacSystemFont, 'Segoe UI', Roboto, sans-serif" font-size="12" font-weight="500" text-anchor="end">2.9%</text><rect width="12" height="12" x="220" y="146" fill="#89E051" rx="3"/><text x="240" y="156" fill="#E6EDF3" font-family="-apple-system, BlinkMacSystemFont, 'Segoe UI', Roboto, sans-serif" font-size="12" font-weight="500">Shell</text><text x="460" y="156" fill="#7D8590" font-family="-apple-system, BlinkMacSystemFont, 'Segoe UI', Roboto, sans-serif" font-size="12" font-weight="500" text-anchor="end">1.8%</text><rect width="12" height="12" x="220" y="166" fill="#A371F7" rx="3"/><text x="240" y="176" fill="#E6EDF3" font-family="-apple-system, BlinkMacSystemFont, 'Segoe UI', Roboto, sans-serif" font-size="12" font-weight="500">Clarity</text><text x="460" y="176" fill="#7D8590" font-family="-apple-system, BlinkMacSystemFont, 'Segoe UI', Roboto, sans-serif" font-size="12" font-weight="500" text-anchor="end">0.7%</text><rect width="12" height="12" x="220" y="186" fill="#A371F7" rx="3"/><text x="240" y="196" fill="#E6EDF3" font-family="-apple-system, BlinkMacSystemFont, 'Segoe UI', Roboto, sans-serif" font-size="12" font-weight="500">EJS</text><text x="460" y="196" fill="#7D8590" font-family="-apple-system, BlinkMacSystemFont, 'Segoe UI', Roboto, sans-serif" font-size="12" font-weight="500" text-anchor="end">0.7%</text></svg>