<svg xmlns="http://www.w3.org/2000/svg" width="480" height="240" viewBox="0 0 480 240" role="img" aria-label="Top Languages">
  <rect width="480" height="240" fill="#0D1117" rx="12"/>
  <text x="20" y="30" font-family="-apple-system, BlinkMacSystemFont, 'Segoe UI', Roboto, sans-serif" font-size="15" font-weight="700" fill="#A371F7">Top Languages</text>
  <path d="M 110,55 A 75,75 0 0 1 NaN,NaN L NaN,NaN A 45,45 0 0 0 110,85 Z" fill="#A371F7"/>
  <path d="M NaN,NaN A 75,75 0 0 1 NaN,NaN L NaN,NaN A 45,45 0 0 0 NaN,NaN Z" fill="#A371F7"/>
  <path d="M NaN,NaN A 75,75 0 0 1 NaN,NaN L NaN,NaN A 45,45 0 0 0 NaN,NaN Z" fill="#3178C6"/>
  <path d="M NaN,NaN A 75,75 0 0 1 NaN,NaN L NaN,NaN A 45,45 0 0 0 NaN,NaN Z" fill="#F1E05A"/>
  <path d="M NaN,NaN A 75,75 0 0 1 NaN,NaN L NaN,NaN A 45,45 0 0 0 NaN,NaN Z" fill="#AA6746"/>
  <path d="M NaN,NaN A 75,75 0 0 1 NaN,NaN L NaN,NaN A 45,45 0 0 0 NaN,NaN Z" fill="#3572A5"/>
  <path d="M NaN,NaN A 75,75 0 0 1 NaN,NaN L NaN,NaN A 45,45 0 0 0 NaN,NaN Z" fill="#A371F7"/>
  <path d="M NaN,NaN A 75,75 0 0 1 NaN,NaN L NaN,NaN A 45,45 0 0 0 NaN,NaN Z" fill="#89E051"/>
  
      <rect x="220" y="46" width="12" height="12" rx="3" fill="#A371F7"/>
      <text x="240" y="56" font-family="-apple-system, BlinkMacSystemFont, 'Segoe UI', Roboto, sans-serif" font-size="12" font-weight="500" fill="#E6EDF3">message</text>
      <text x="460" y="56" font-family="-apple-system, BlinkMacSystemFont, 'Segoe UI', Roboto, sans-serif" font-size="12" font-weight="500" fill="#7D8590" text-anchor="end">NaN%</text>
      <rect x="220" y="66" width="12" height="12" rx="3" fill="#A371F7"/>
      <text x="240" y="76" font-family="-apple-system, BlinkMacSystemFont, 'Segoe UI', Roboto, sans-serif" font-size="12" font-weight="500" fill="#E6EDF3">documentation_url</text>
      <text x="460" y="76" font-family="-apple-system, BlinkMacSystemFont, 'Segoe UI', Roboto, sans-serif" font-size="12" font-weight="500" fill="#7D8590" text-anchor="end">NaN%</text>
      <rect x="220" y="86" width="12" height="12" rx="3" fill="#3178C6"/>
      <text x="240" y="96" font-family="-apple-system, BlinkMacSystemFont, 'Segoe UI', Roboto, sans-serif" font-size="12" font-weight="500" fill="#E6EDF3">TypeScript</text>
      <text x="460" y="96" font-family="-apple-system, BlinkMacSystemFont, 'Segoe UI', Roboto, sans-serif" font-size="12" font-weight="500" fill="#7D8590" text-anchor="end">NaN%</text>
      <rect x="220" y="106" width="12" height="12" rx="3" fill="#F1E05A"/>
      <text x="240" y="116" font-family="-apple-system, BlinkMacSystemFont, 'Segoe UI', Roboto, sans-serif" font-size="12" font-weight="500" fill="#E6EDF3">JavaScript</text>
      <text x="460" y="116" font-family="-apple-system, BlinkMacSystemFont, 'Segoe UI', Roboto, sans-serif" font-size="12" font-weight="500" fill="#7D8590" text-anchor="end">NaN%</text>
      <rect x="220" y="126" width="12" height="12" rx="3" fill="#AA6746"/>
      <text x="240" y="136" font-family="-apple-system, BlinkMacSystemFont, 'Segoe UI', Roboto, sans-serif" font-size="12" font-weight="500" fill="#E6EDF3">Solidity</text>
      <text x="460" y="136" font-family="-apple-system, BlinkMacSystemFont, 'Segoe UI', Roboto, sans-serif" font-size="12" font-weight="500" fill="#7D8590" text-anchor="end">NaN%</text>
      <rect x="220" y="146" width="12" height="12" rx="3" fill="#3572A5"/>
      <text x="240" y="156" font-family="-apple-system, BlinkMacSystemFont, 'Segoe UI', Roboto, sans-serif" font-size="12" font-weight="500" fill="#E6EDF3">Python</text>
      <text x="460" y="156" font-family="-apple-system, BlinkMacSystemFont, 'Segoe UI', Roboto, sans-serif" font-size="12" font-weight="500" fill="#7D8590" text-anchor="end">NaN%</text>
      <rect x="220" y="166" width="12" height="12" rx="3" fill="#A371F7"/>
      <text x="240" y="176" font-family="-apple-system, BlinkMacSystemFont, 'Segoe UI', Roboto, sans-serif" font-size="12" font-weight="500" fill="#E6EDF3">Clarity</text>
      <text x="460" y="176" font-family="-apple-system, BlinkMacSystemFont, 'Segoe UI', Roboto, sans-serif" font-size="12" font-weight="500" fill="#7D8590" text-anchor="end">NaN%</text>
      <rect x="220" y="186" width="12" height="12" rx="3" fill="#89E051"/>
      <text x="240" y="196" font-family="-apple-system, BlinkMacSystemFont, 'Segoe UI', Roboto, sans-serif" font-size="12" font-weight="500" fill="#E6EDF3">Shell</text>
      <text x="460" y="196" font-family="-apple-system, BlinkMacSystemFont, 'Segoe UI', Roboto, sans-serif" font-size="12" font-weight="500" fill="#7D8590" text-anchor="end">NaN%</text>
</svg>