<svg xmlns="http://www.w3.org/2000/svg" width="480" height="240" viewBox="0 0 480 240" role="img" aria-label="Top Languages">
  <rect width="480" height="240" fill="#0D1117" rx="12"/>
  <text x="20" y="30" font-family="-apple-system, BlinkMacSystemFont, 'Segoe UI', Roboto, sans-serif" font-size="15" font-weight="700" fill="#A371F7">Top Languages</text>
  <path d="M 110,55 A 75,75 0 1 1 51.45792079202087,83.1190341182405 L 74.87475247521252,101.8714204709443 A 45,45 0 1 0 110,85 Z" fill="#DA5B0B"/>
  <path d="M 51.45792079202087,83.1190341182405 A 75,75 0 0 1 78.91277376171489,61.74617692165751 L 91.34766425702894,89.04770615299451 A 45,45 0 0 0 74.87475247521252,101.8714204709443 Z" fill="#3178C6"/>
  <path d="M 78.91277376171489,61.74617692165751 A 75,75 0 0 1 92.83683025170313,56.9902362406839 L 99.70209815102189,86.19414174441033 A 45,45 0 0 0 91.34766425702894,89.04770615299451 Z" fill="#B07219"/>
  <path d="M 92.83683025170313,56.9902362406839 A 75,75 0 0 1 104.0699007382601,55.23480808059199 L 106.44194044295607,85.1408848483552 A 45,45 0 0 0 99.70209815102189,86.19414174441033 Z" fill="#AA6746"/>
  <path d="M 104.0699007382601,55.23480808059199 A 75,75 0 0 1 107.75704296604583,55.033546544178606 L 108.6542257796275,85.02012792650717 A 45,45 0 0 0 106.44194044295607,85.1408848483552 Z" fill="#F1E05A"/>
  <path d="M 107.75704296604583,55.033546544178606 A 75,75 0 0 1 108.8682648314554,55.0085393160776 L 109.32095889887324,85.00512358964656 A 45,45 0 0 0 108.6542257796275,85.02012792650717 Z" fill="#3572A5"/>
  <path d="M 108.8682648314554,55.0085393160776 A 75,75 0 0 1 109.49489417397737,55.00170089859026 L 109.69693650438641,85.00102053915415 A 45,45 0 0 0 109.32095889887324,85.00512358964656 Z" fill="#563D7C"/>
  <path d="M 109.49489417397737,55.00170089859026 A 75,75 0 0 1 109.99999999999986,55 L 109.99999999999991,85 A 45,45 0 0 0 109.69693650438641,85.00102053915415 Z" fill="#A371F7"/>
  
      <rect x="220" y="46" width="12" height="12" rx="3" fill="#DA5B0B"/>
      <text x="240" y="56" font-family="-apple-system, BlinkMacSystemFont, 'Segoe UI', Roboto, sans-serif" font-size="12" font-weight="500" fill="#E6EDF3">Jupyter Notebook</text>
      <text x="460" y="56" font-family="-apple-system, BlinkMacSystemFont, 'Segoe UI', Roboto, sans-serif" font-size="12" font-weight="500" fill="#7D8590" text-anchor="end">85.7%</text>
      <rect x="220" y="66" width="12" height="12" rx="3" fill="#3178C6"/>
      <text x="240" y="76" font-family="-apple-system, BlinkMacSystemFont, 'Segoe UI', Roboto, sans-serif" font-size="12" font-weight="500" fill="#E6EDF3">TypeScript</text>
      <text x="460" y="76" font-family="-apple-system, BlinkMacSystemFont, 'Segoe UI', Roboto, sans-serif" font-size="12" font-weight="500" fill="#7D8590" text-anchor="end">7.5%</text>
      <rect x="220" y="86" width="12" height="12" rx="3" fill="#B07219"/>
      <text x="240" y="96" font-family="-apple-system, BlinkMacSystemFont, 'Segoe UI', Roboto, sans-serif" font-size="12" font-weight="500" fill="#E6EDF3">Java</text>
      <text x="460" y="96" font-family="-apple-system, BlinkMacSystemFont, 'Segoe UI', Roboto, sans-serif" font-size="12" font-weight="500" fill="#7D8590" text-anchor="end">3.1%</text>
      <rect x="220" y="106" width="12" height="12" rx="3" fill="#AA6746"/>
      <text x="240" y="116" font-family="-apple-system, BlinkMacSystemFont, 'Segoe UI', Roboto, sans-serif" font-size="12" font-weight="500" fill="#E6EDF3">Solidity</text>
      <text x="460" y="116" font-family="-apple-system, BlinkMacSystemFont, 'Segoe UI', Roboto, sans-serif" font-size="12" font-weight="500" fill="#7D8590" text-anchor="end">2.4%</text>
      <rect x="220" y="126" width="12" height="12" rx="3" fill="#F1E05A"/>
      <text x="240" y="136" font-family="-apple-system, BlinkMacSystemFont, 'Segoe UI', Roboto, sans-serif" font-size="12" font-weight="500" fill="#E6EDF3">JavaScript</text>
      <text x="460" y="136" font-family="-apple-system, BlinkMacSystemFont, 'Segoe UI', Roboto, sans-serif" font-size="12" font-weight="500" fill="#7D8590" text-anchor="end">0.8%</text>
      <rect x="220" y="146" width="12" height="12" rx="3" fill="#3572A5"/>
      <text x="240" y="156" font-family="-apple-system, BlinkMacSystemFont, 'Segoe UI', Roboto, sans-serif" font-size="12" font-weight="500" fill="#E6EDF3">Python</text>
      <text x="460" y="156" font-family="-apple-system, BlinkMacSystemFont, 'Segoe UI', Roboto, sans-serif" font-size="12" font-weight="500" fill="#7D8590" text-anchor="end">0.2%</text>
      <rect x="220" y="166" width="12" height="12" rx="3" fill="#563D7C"/>
      <text x="240" y="176" font-family="-apple-system, BlinkMacSystemFont, 'Segoe UI', Roboto, sans-serif" font-size="12" font-weight="500" fill="#E6EDF3">CSS</text>
      <text x="460" y="176" font-family="-apple-system, BlinkMacSystemFont, 'Segoe UI', Roboto, sans-serif" font-size="12" font-weight="500" fill="#7D8590" text-anchor="end">0.1%</text>
      <rect x="220" y="186" width="12" height="12" rx="3" fill="#A371F7"/>
      <text x="240" y="196" font-family="-apple-system, BlinkMacSystemFont, 'Segoe UI', Roboto, sans-serif" font-size="12" font-weight="500" fill="#E6EDF3">Clarity</text>
      <text x="460" y="196" font-family="-apple-system, BlinkMacSystemFont, 'Segoe UI', Roboto, sans-serif" font-size="12" font-weight="500" fill="#7D8590" text-anchor="end">0.1%</text>
</svg>