<svg xmlns="http://www.w3.org/2000/svg" width="480" height="240" viewBox="0 0 480 240" role="img" aria-label="Top Languages">
  <rect width="480" height="240" fill="#0D1117" rx="12"/>
  <text x="20" y="30" font-family="-apple-system, BlinkMacSystemFont, 'Segoe UI', Roboto, sans-serif" font-size="15" font-weight="700" fill="#A371F7">Top Languages</text>
  <path d="M 110,55 A 75,75 0 1 1 99.29852613480847,204.23259699830407 L 103.57911568088508,174.53955819898243 A 45,45 0 1 0 110,85 Z" fill="#3178C6"/>
  <path d="M 99.29852613480847,204.23259699830407 A 75,75 0 0 1 35.089813310246114,133.6693228402826 L 65.05388798614766,132.20159370416957 A 45,45 0 0 0 103.57911568088508,174.53955819898243 Z" fill="#B07219"/>
  <path d="M 35.089813310246114,133.6693228402826 A 75,75 0 0 1 70.47102504927922,66.26256877355905 L 86.28261502956754,91.75754126413543 A 45,45 0 0 0 65.05388798614766,132.20159370416957 Z" fill="#AA6746"/>
  <path d="M 70.47102504927922,66.26256877355905 A 75,75 0 0 1 94.39086193225448,56.642281873124915 L 100.63451715935268,85.98536912387495 A 45,45 0 0 0 86.28261502956754,91.75754126413543 Z" fill="#F1E05A"/>
  <path d="M 94.39086193225448,56.642281873124915 A 75,75 0 0 1 102.08919002498271,55.41837300286909 L 105.25351401498962,85.25102380172146 A 45,45 0 0 0 100.63451715935268,85.98536912387495 Z" fill="#3572A5"/>
  <path d="M 102.08919002498271,55.41837300286909 A 75,75 0 0 1 105.62085543090537,55.1279551979314 L 107.37251325854322,85.07677311875884 A 45,45 0 0 0 105.25351401498962,85.25102380172146 Z" fill="#A371F7"/>
  <path d="M 105.62085543090537,55.1279551979314 A 75,75 0 0 1 109.0639190816234,55.00584187742187 L 109.43835144897403,85.00350512645312 A 45,45 0 0 0 107.37251325854322,85.07677311875884 Z" fill="#A371F7"/>
  <path d="M 109.0639190816234,55.00584187742187 A 75,75 0 0 1 110.00000000000006,55 L 110.00000000000003,85 A 45,45 0 0 0 109.43835144897403,85.00350512645312 Z" fill="#C6538C"/>
  
      <rect x="220" y="46" width="12" height="12" rx="3" fill="#3178C6"/>
      <text x="240" y="56" font-family="-apple-system, BlinkMacSystemFont, 'Segoe UI', Roboto, sans-serif" font-size="12" font-weight="500" fill="#E6EDF3">TypeScript</text>
      <text x="460" y="56" font-family="-apple-system, BlinkMacSystemFont, 'Segoe UI', Roboto, sans-serif" font-size="12" font-weight="500" fill="#7D8590" text-anchor="end">52.3%</text>
      <rect x="220" y="66" width="12" height="12" rx="3" fill="#B07219"/>
      <text x="240" y="76" font-family="-apple-system, BlinkMacSystemFont, 'Segoe UI', Roboto, sans-serif" font-size="12" font-weight="500" fill="#E6EDF3">Java</text>
      <text x="460" y="76" font-family="-apple-system, BlinkMacSystemFont, 'Segoe UI', Roboto, sans-serif" font-size="12" font-weight="500" fill="#7D8590" text-anchor="end">21.9%</text>
      <rect x="220" y="86" width="12" height="12" rx="3" fill="#AA6746"/>
      <text x="240" y="96" font-family="-apple-system, BlinkMacSystemFont, 'Segoe UI', Roboto, sans-serif" font-size="12" font-weight="500" fill="#E6EDF3">Solidity</text>
      <text x="460" y="96" font-family="-apple-system, BlinkMacSystemFont, 'Segoe UI', Roboto, sans-serif" font-size="12" font-weight="500" fill="#7D8590" text-anchor="end">16.9%</text>
      <rect x="220" y="106" width="12" height="12" rx="3" fill="#F1E05A"/>
      <text x="240" y="116" font-family="-apple-system, BlinkMacSystemFont, 'Segoe UI', Roboto, sans-serif" font-size="12" font-weight="500" fill="#E6EDF3">JavaScript</text>
      <text x="460" y="116" font-family="-apple-system, BlinkMacSystemFont, 'Segoe UI', Roboto, sans-serif" font-size="12" font-weight="500" fill="#7D8590" text-anchor="end">5.5%</text>
      <rect x="220" y="126" width="12" height="12" rx="3" fill="#3572A5"/>
      <text x="240" y="136" font-family="-apple-system, BlinkMacSystemFont, 'Segoe UI', Roboto, sans-serif" font-size="12" font-weight="500" fill="#E6EDF3">Python</text>
      <text x="460" y="136" font-family="-apple-system, BlinkMacSystemFont, 'Segoe UI', Roboto, sans-serif" font-size="12" font-weight="500" fill="#7D8590" text-anchor="end">1.7%</text>
      <rect x="220" y="146" width="12" height="12" rx="3" fill="#A371F7"/>
      <text x="240" y="156" font-family="-apple-system, BlinkMacSystemFont, 'Segoe UI', Roboto, sans-serif" font-size="12" font-weight="500" fill="#E6EDF3">Clarity</text>
      <text x="460" y="156" font-family="-apple-system, BlinkMacSystemFont, 'Segoe UI', Roboto, sans-serif" font-size="12" font-weight="500" fill="#7D8590" text-anchor="end">0.8%</text>
      <rect x="220" y="166" width="12" height="12" rx="3" fill="#A371F7"/>
      <text x="240" y="176" font-family="-apple-system, BlinkMacSystemFont, 'Segoe UI', Roboto, sans-serif" font-size="12" font-weight="500" fill="#E6EDF3">EJS</text>
      <text x="460" y="176" font-family="-apple-system, BlinkMacSystemFont, 'Segoe UI', Roboto, sans-serif" font-size="12" font-weight="500" fill="#7D8590" text-anchor="end">0.7%</text>
      <rect x="220" y="186" width="12" height="12" rx="3" fill="#C6538C"/>
      <text x="240" y="196" font-family="-apple-system, BlinkMacSystemFont, 'Segoe UI', Roboto, sans-serif" font-size="12" font-weight="500" fill="#E6EDF3">SCSS</text>
      <text x="460" y="196" font-family="-apple-system, BlinkMacSystemFont, 'Segoe UI', Roboto, sans-serif" font-size="12" font-weight="500" fill="#7D8590" text-anchor="end">0.2%</text>
</svg>