<svg xmlns="http://www.w3.org/2000/svg" width="480" height="240" aria-label="Top Languages" role="img" viewBox="0 0 480 240"><rect width="480" height="240" fill="#0D1117" rx="12"/><text x="20" y="30" fill="#A371F7" font-family="-apple-system, BlinkMacSystemFont, 'Segoe UI', Roboto, sans-serif" font-size="15" font-weight="700">Top Languages</text><path fill="#3178C6" d="M 110,55 A 75,75 0 1 1 89.15246237565005,202.04429314665606 L 97.49147742539003,173.22657588799365 A 45,45 0 1 0 110,85 Z"/><path fill="#B07219" d="M 89.15246237565005,202.04429314665606 A 75,75 0 0 1 35.19672871545197,135.42868355407762 L 65.11803722927118,133.25721013244657 A 45,45 0 0 0 97.49147742539003,173.22657588799365 Z"/><path fill="#AA6746" d="M 35.19672871545197,135.42868355407762 A 75,75 0 0 1 61.470030856050656,72.81746687241528 L 80.88201851363038,95.69048012344916 A 45,45 0 0 0 65.11803722927118,133.25721013244657 Z"/><path fill="#F1E05A" d="M 61.470030856050656,72.81746687241528 A 75,75 0 0 1 83.0390745600414,60.013512022526854 L 93.82344473602484,88.00810721351611 A 45,45 0 0 0 80.88201851363038,95.69048012344916 Z"/><path fill="#3572A5" d="M 83.0390745600414,60.013512022526854 A 75,75 0 0 1 95.82743003151667,56.351250788024615 L 101.49645801891,85.81075047281477 A 45,45 0 0 0 93.82344473602484,88.00810721351611 Z"/><path fill="#89E051" d="M 95.82743003151667,56.351250788024615 A 75,75 0 0 1 103.83881235953659,55.25349662453098 L 106.30328741572195,85.15209797471859 A 45,45 0 0 0 101.49645801891,85.81075047281477 Z"/><path fill="#A371F7" d="M 103.83881235953659,55.25349662453098 A 75,75 0 0 1 106.9601754212734,55.06162887725294 L 108.17610525276405,85.03697732635177 A 45,45 0 0 0 106.30328741572195,85.15209797471859 Z"/><path fill="#A371F7" d="M 106.9601754212734,55.06162887725294 A 75,75 0 0 1 110.00000000000006,55 L 110.00000000000003,85 A 45,45 0 0 0 108.17610525276405,85.03697732635177 Z"/><rect width="12" height="12" x="220" y="46" fill="#3178C6" rx="3"/><text x="240" y="56" fill="#E6EDF3" font-family="-apple-system, BlinkMacSystemFont, 'Segoe UI', Roboto, sans-serif" font-size="12" font-weight="500">TypeScript</text><text x="460" y="56" fill="#7D8590" font-family="-apple-system, BlinkMacSystemFont, 'Segoe UI', Roboto, sans-serif" font-size="12" font-weight="500" text-anchor="end">54.5%</text><rect width="12" height="12" x="220" y="66" fill="#B07219" rx="3"/><text x="240" y="76" fill="#E6EDF3" font-family="-apple-system, BlinkMacSystemFont, 'Segoe UI', Roboto, sans-serif" font-size="12" font-weight="500">Java</text><text x="460" y="76" fill="#7D8590" font-family="-apple-system, BlinkMacSystemFont, 'Segoe UI', Roboto, sans-serif" font-size="12" font-weight="500" text-anchor="end">19.4%</text><rect width="12" height="12" x="220" y="86" fill="#AA6746" rx="3"/><text x="240" y="96" fill="#E6EDF3" font-family="-apple-system, BlinkMacSystemFont, 'Segoe UI', Roboto, sans-serif" font-size="12" font-weight="500">Solidity</text><text x="460" y="96" fill="#7D8590" font-family="-apple-system, BlinkMacSystemFont, 'Segoe UI', Roboto, sans-serif" font-size="12" font-weight="500" text-anchor="end">15.0%</text><rect width="12" height="12" x="220" y="106" fill="#F1E05A" rx="3"/><text x="240" y="116" fill="#E6EDF3" font-family="-apple-system, BlinkMacSystemFont, 'Segoe UI', Roboto, sans-serif" font-size="12" font-weight="500">JavaScript</text><text x="460" y="116" fill="#7D8590" font-family="-apple-system, BlinkMacSystemFont, 'Segoe UI', Roboto, sans-serif" font-size="12" font-weight="500" text-anchor="end">5.3%</text><rect width="12" height="12" x="220" y="126" fill="#3572A5" rx="3"/><text x="240" y="136" fill="#E6EDF3" font-family="-apple-system, BlinkMacSystemFont, 'Segoe UI', Roboto, sans-serif" font-size="12" font-weight="500">Python</text><text x="460" y="136" fill="#7D8590" font-family="-apple-system, BlinkMacSystemFont, 'Segoe UI', Roboto, sans-serif" font-size="12" font-weight="500" text-anchor="end">2.8%</text><rect width="12" height="12" x="220" y="146" fill="#89E051" rx="3"/><text x="240" y="156" fill="#E6EDF3" font-family="-apple-system, BlinkMacSystemFont, 'Segoe UI', Roboto, sans-serif" font-size="12" font-weight="500">Shell</text><text x="460" y="156" fill="#7D8590" font-family="-apple-system, BlinkMacSystemFont, 'Segoe UI', Roboto, sans-serif" font-size="12" font-weight="500" text-anchor="end">1.7%</text><rect width="12" height="12" x="220" y="166" fill="#A371F7" rx="3"/><text x="240" y="176" fill="#E6EDF3" font-family="-apple-system, BlinkMacSystemFont, 'Segoe UI', Roboto, sans-serif" font-size="12" font-weight="500">Clarity</text><text x="460" y="176" fill="#7D8590" font-family="-apple-system, BlinkMacSystemFont, 'Segoe UI', Roboto, sans-serif" font-size="12" font-weight="500" text-anchor="end">0.7%</text><rect width="12" height="12" x="220" y="186" fill="#A371F7" rx="3"/><text x="240" y="196" fill="#E6EDF3" font-family="-apple-system, BlinkMacSystemFont, 'Segoe UI', Roboto, sans-serif" font-size="12" font-weight="500">EJS</text><text x="460" y="196" fill="#7D8590" font-family="-apple-system, BlinkMacSystemFont, 'Segoe UI', Roboto, sans-serif" font-size="12" font-weight="500" text-anchor="end">0.6%</text></svg>