<svg xmlns="http://www.w3.org/2000/svg" width="480" height="240" viewBox="0 0 480 240" role="img" aria-label="Top Languages">
  <rect width="480" height="240" fill="#0D1117" rx="12"/>
  <text x="20" y="30" font-family="-apple-system, BlinkMacSystemFont, 'Segoe UI', Roboto, sans-serif" font-size="15" font-weight="700" fill="#A371F7">Top Languages</text>
  <path d="M 110,55 A 75,75 0 1 1 46.845926339740835,170.4544556274653 L 72.10755580384449,154.2726733764792 A 45,45 0 1 0 110,85 Z" fill="#3178C6"/>
  <path d="M 46.845926339740835,170.4544556274653 A 75,75 0 0 1 47.7776525474491,88.12662567341829 L 72.66659152846947,104.87597540405098 A 45,45 0 0 0 72.10755580384449,154.2726733764792 Z" fill="#AA6746"/>
  <path d="M 47.7776525474491,88.12662567341829 A 75,75 0 0 1 70.1043258655339,66.49145580824191 L 86.06259551932033,91.89487348494514 A 45,45 0 0 0 72.66659152846947,104.87597540405098 Z" fill="#F1E05A"/>
  <path d="M 70.1043258655339,66.49145580824191 A 75,75 0 0 1 84.90194603692788,59.32406571352084 L 94.94116762215673,87.59443942811251 A 45,45 0 0 0 86.06259551932033,91.89487348494514 Z" fill="#3572A5"/>
  <path d="M 84.90194603692788,59.32406571352084 A 75,75 0 0 1 94.52670566155052,56.61350831170829 L 100.71602339693031,85.96810498702497 A 45,45 0 0 0 94.94116762215673,87.59443942811251 Z" fill="#89E051"/>
  <path d="M 94.52670566155052,56.61350831170829 A 75,75 0 0 1 102.38389240554241,55.38770272193969 L 105.43033544332545,85.23262163316382 A 45,45 0 0 0 100.71602339693031,85.96810498702497 Z" fill="#B07219"/>
  <path d="M 102.38389240554241,55.38770272193969 A 75,75 0 0 1 106.24064212862692,55.09427773263951 L 107.74438527717615,85.0565666395837 A 45,45 0 0 0 105.43033544332545,85.23262163316382 Z" fill="#A371F7"/>
  <path d="M 106.24064212862692,55.09427773263951 A 75,75 0 0 1 109.99999999999991,55 L 109.99999999999996,85 A 45,45 0 0 0 107.74438527717615,85.0565666395837 Z" fill="#A371F7"/>
  
      <rect x="220" y="46" width="12" height="12" rx="3" fill="#3178C6"/>
      <text x="240" y="56" font-family="-apple-system, BlinkMacSystemFont, 'Segoe UI', Roboto, sans-serif" font-size="12" font-weight="500" fill="#E6EDF3">TypeScript</text>
      <text x="460" y="56" font-family="-apple-system, BlinkMacSystemFont, 'Segoe UI', Roboto, sans-serif" font-size="12" font-weight="500" fill="#7D8590" text-anchor="end">65.9%</text>
      <rect x="220" y="66" width="12" height="12" rx="3" fill="#AA6746"/>
      <text x="240" y="76" font-family="-apple-system, BlinkMacSystemFont, 'Segoe UI', Roboto, sans-serif" font-size="12" font-weight="500" fill="#E6EDF3">Solidity</text>
      <text x="460" y="76" font-family="-apple-system, BlinkMacSystemFont, 'Segoe UI', Roboto, sans-serif" font-size="12" font-weight="500" fill="#7D8590" text-anchor="end">18.5%</text>
      <rect x="220" y="86" width="12" height="12" rx="3" fill="#F1E05A"/>
      <text x="240" y="96" font-family="-apple-system, BlinkMacSystemFont, 'Segoe UI', Roboto, sans-serif" font-size="12" font-weight="500" fill="#E6EDF3">JavaScript</text>
      <text x="460" y="96" font-family="-apple-system, BlinkMacSystemFont, 'Segoe UI', Roboto, sans-serif" font-size="12" font-weight="500" fill="#7D8590" text-anchor="end">6.6%</text>
      <rect x="220" y="106" width="12" height="12" rx="3" fill="#3572A5"/>
      <text x="240" y="116" font-family="-apple-system, BlinkMacSystemFont, 'Segoe UI', Roboto, sans-serif" font-size="12" font-weight="500" fill="#E6EDF3">Python</text>
      <text x="460" y="116" font-family="-apple-system, BlinkMacSystemFont, 'Segoe UI', Roboto, sans-serif" font-size="12" font-weight="500" fill="#7D8590" text-anchor="end">3.5%</text>
      <rect x="220" y="126" width="12" height="12" rx="3" fill="#89E051"/>
      <text x="240" y="136" font-family="-apple-system, BlinkMacSystemFont, 'Segoe UI', Roboto, sans-serif" font-size="12" font-weight="500" fill="#E6EDF3">Shell</text>
      <text x="460" y="136" font-family="-apple-system, BlinkMacSystemFont, 'Segoe UI', Roboto, sans-serif" font-size="12" font-weight="500" fill="#7D8590" text-anchor="end">2.1%</text>
      <rect x="220" y="146" width="12" height="12" rx="3" fill="#B07219"/>
      <text x="240" y="156" font-family="-apple-system, BlinkMacSystemFont, 'Segoe UI', Roboto, sans-serif" font-size="12" font-weight="500" fill="#E6EDF3">Java</text>
      <text x="460" y="156" font-family="-apple-system, BlinkMacSystemFont, 'Segoe UI', Roboto, sans-serif" font-size="12" font-weight="500" fill="#7D8590" text-anchor="end">1.7%</text>
      <rect x="220" y="166" width="12" height="12" rx="3" fill="#A371F7"/>
      <text x="240" y="176" font-family="-apple-system, BlinkMacSystemFont, 'Segoe UI', Roboto, sans-serif" font-size="12" font-weight="500" fill="#E6EDF3">Clarity</text>
      <text x="460" y="176" font-family="-apple-system, BlinkMacSystemFont, 'Segoe UI', Roboto, sans-serif" font-size="12" font-weight="500" fill="#7D8590" text-anchor="end">0.8%</text>
      <rect x="220" y="186" width="12" height="12" rx="3" fill="#A371F7"/>
      <text x="240" y="196" font-family="-apple-system, BlinkMacSystemFont, 'Segoe UI', Roboto, sans-serif" font-size="12" font-weight="500" fill="#E6EDF3">EJS</text>
      <text x="460" y="196" font-family="-apple-system, BlinkMacSystemFont, 'Segoe UI', Roboto, sans-serif" font-size="12" font-weight="500" fill="#7D8590" text-anchor="end">0.8%</text>
</svg>