<svg xmlns="http://www.w3.org/2000/svg" width="480" height="240" viewBox="0 0 480 240" role="img" aria-label="Top Languages">
  <rect width="480" height="240" fill="#0D1117" rx="12"/>
  <text x="20" y="30" font-family="-apple-system, BlinkMacSystemFont, 'Segoe UI', Roboto, sans-serif" font-size="15" font-weight="700" fill="#A371F7">Top Languages</text>
  <path d="M 110,55 A 75,75 0 1 1 93.09328983570839,203.06957746846933 L 99.85597390142503,173.8417464810816 A 45,45 0 1 0 110,85 Z" fill="#3178C6"/>
  <path d="M 93.09328983570839,203.06957746846933 A 75,75 0 0 1 35.40247897170707,137.75950104281165 L 65.24148738302424,134.655700625687 A 45,45 0 0 0 99.85597390142503,173.8417464810816 Z" fill="#B07219"/>
  <path d="M 35.40247897170707,137.75950104281165 A 75,75 0 0 1 60.71034186252769,73.4709844355033 L 80.42620511751662,96.08259066130198 A 45,45 0 0 0 65.24148738302424,134.655700625687 Z" fill="#AA6746"/>
  <path d="M 60.71034186252769,73.4709844355033 A 75,75 0 0 1 82.55111964318486,60.203445879060425 L 93.53067178591093,88.12206752743626 A 45,45 0 0 0 80.42620511751662,96.08259066130198 Z" fill="#F1E05A"/>
  <path d="M 82.55111964318486,60.203445879060425 A 75,75 0 0 1 95.56168282883402,56.40288730347628 L 101.33700969730042,85.84173238208577 A 45,45 0 0 0 93.53067178591093,88.12206752743626 Z" fill="#3572A5"/>
  <path d="M 95.56168282883402,56.40288730347628 A 75,75 0 0 1 103.72210340384297,55.26320842899422 L 106.23326204230578,85.15792505739654 A 45,45 0 0 0 101.33700969730042,85.84173238208577 Z" fill="#89E051"/>
  <path d="M 103.72210340384297,55.26320842899422 A 75,75 0 0 1 106.90249183750066,55.06399101110836 L 108.1414951025004,85.03839460666501 A 45,45 0 0 0 106.23326204230578,85.15792505739654 Z" fill="#A371F7"/>
  <path d="M 106.90249183750066,55.06399101110836 A 75,75 0 0 1 110.00000000000006,55 L 110.00000000000003,85 A 45,45 0 0 0 108.1414951025004,85.03839460666501 Z" fill="#A371F7"/>
  
      <rect x="220" y="46" width="12" height="12" rx="3" fill="#3178C6"/>
      <text x="240" y="56" font-family="-apple-system, BlinkMacSystemFont, 'Segoe UI', Roboto, sans-serif" font-size="12" font-weight="500" fill="#E6EDF3">TypeScript</text>
      <text x="460" y="56" font-family="-apple-system, BlinkMacSystemFont, 'Segoe UI', Roboto, sans-serif" font-size="12" font-weight="500" fill="#7D8590" text-anchor="end">53.6%</text>
      <rect x="220" y="66" width="12" height="12" rx="3" fill="#B07219"/>
      <text x="240" y="76" font-family="-apple-system, BlinkMacSystemFont, 'Segoe UI', Roboto, sans-serif" font-size="12" font-weight="500" fill="#E6EDF3">Java</text>
      <text x="460" y="76" font-family="-apple-system, BlinkMacSystemFont, 'Segoe UI', Roboto, sans-serif" font-size="12" font-weight="500" fill="#7D8590" text-anchor="end">19.7%</text>
      <rect x="220" y="86" width="12" height="12" rx="3" fill="#AA6746"/>
      <text x="240" y="96" font-family="-apple-system, BlinkMacSystemFont, 'Segoe UI', Roboto, sans-serif" font-size="12" font-weight="500" fill="#E6EDF3">Solidity</text>
      <text x="460" y="96" font-family="-apple-system, BlinkMacSystemFont, 'Segoe UI', Roboto, sans-serif" font-size="12" font-weight="500" fill="#7D8590" text-anchor="end">15.2%</text>
      <rect x="220" y="106" width="12" height="12" rx="3" fill="#F1E05A"/>
      <text x="240" y="116" font-family="-apple-system, BlinkMacSystemFont, 'Segoe UI', Roboto, sans-serif" font-size="12" font-weight="500" fill="#E6EDF3">JavaScript</text>
      <text x="460" y="116" font-family="-apple-system, BlinkMacSystemFont, 'Segoe UI', Roboto, sans-serif" font-size="12" font-weight="500" fill="#7D8590" text-anchor="end">5.4%</text>
      <rect x="220" y="126" width="12" height="12" rx="3" fill="#3572A5"/>
      <text x="240" y="136" font-family="-apple-system, BlinkMacSystemFont, 'Segoe UI', Roboto, sans-serif" font-size="12" font-weight="500" fill="#E6EDF3">Python</text>
      <text x="460" y="136" font-family="-apple-system, BlinkMacSystemFont, 'Segoe UI', Roboto, sans-serif" font-size="12" font-weight="500" fill="#7D8590" text-anchor="end">2.9%</text>
      <rect x="220" y="146" width="12" height="12" rx="3" fill="#89E051"/>
      <text x="240" y="156" font-family="-apple-system, BlinkMacSystemFont, 'Segoe UI', Roboto, sans-serif" font-size="12" font-weight="500" fill="#E6EDF3">Shell</text>
      <text x="460" y="156" font-family="-apple-system, BlinkMacSystemFont, 'Segoe UI', Roboto, sans-serif" font-size="12" font-weight="500" fill="#7D8590" text-anchor="end">1.7%</text>
      <rect x="220" y="166" width="12" height="12" rx="3" fill="#A371F7"/>
      <text x="240" y="176" font-family="-apple-system, BlinkMacSystemFont, 'Segoe UI', Roboto, sans-serif" font-size="12" font-weight="500" fill="#E6EDF3">Clarity</text>
      <text x="460" y="176" font-family="-apple-system, BlinkMacSystemFont, 'Segoe UI', Roboto, sans-serif" font-size="12" font-weight="500" fill="#7D8590" text-anchor="end">0.7%</text>
      <rect x="220" y="186" width="12" height="12" rx="3" fill="#A371F7"/>
      <text x="240" y="196" font-family="-apple-system, BlinkMacSystemFont, 'Segoe UI', Roboto, sans-serif" font-size="12" font-weight="500" fill="#E6EDF3">EJS</text>
      <text x="460" y="196" font-family="-apple-system, BlinkMacSystemFont, 'Segoe UI', Roboto, sans-serif" font-size="12" font-weight="500" fill="#7D8590" text-anchor="end">0.7%</text>
</svg>