<svg xmlns="http://www.w3.org/2000/svg" width="480" height="240" viewBox="0 0 480 240" role="img" aria-label="Top Languages">
  <rect width="480" height="240" fill="#0D1117" rx="12"/>
  <text x="20" y="30" font-family="-apple-system, BlinkMacSystemFont, 'Segoe UI', Roboto, sans-serif" font-size="15" font-weight="700" fill="#A371F7">Top Languages</text>
  <path d="M 110,55 A 75,75 0 1 1 98.85071917575391,204.16666054975173 L 103.31043150545234,174.49999632985103 A 45,45 0 1 0 110,85 Z" fill="#3178C6"/>
  <path d="M 98.85071917575391,204.16666054975173 A 75,75 0 0 1 35.09020656905098,133.67734253674402 L 65.05412394143059,132.20640552204642 A 45,45 0 0 0 103.31043150545234,174.49999632985103 Z" fill="#B07219"/>
  <path d="M 35.09020656905098,133.67734253674402 A 75,75 0 0 1 70.16236137545303,66.4550352205621 L 86.09741682527182,91.87302113233726 A 45,45 0 0 0 65.05412394143059,132.20640552204642 Z" fill="#AA6746"/>
  <path d="M 70.16236137545303,66.4550352205621 A 75,75 0 0 1 94.45938776797894,56.62773431701896 L 100.67563266078737,85.97664059021137 A 45,45 0 0 0 86.09741682527182,91.87302113233726 Z" fill="#F1E05A"/>
  <path d="M 94.45938776797894,56.62773431701896 A 75,75 0 0 1 102.12430339410218,55.414656915907074 L 105.27458203646131,85.24879414954424 A 45,45 0 0 0 100.67563266078737,85.97664059021137 Z" fill="#3572A5"/>
  <path d="M 102.12430339410218,55.414656915907074 A 75,75 0 0 1 105.64034308795229,55.12681794120651 L 107.38420585277137,85.07609076472392 A 45,45 0 0 0 105.27458203646131,85.24879414954424 Z" fill="#A371F7"/>
  <path d="M 105.64034308795229,55.12681794120651 A 75,75 0 0 1 109.06808923978133,55.00578994125621 L 109.4408535438688,85.00347396475372 A 45,45 0 0 0 107.38420585277137,85.07609076472392 Z" fill="#A371F7"/>
  <path d="M 109.06808923978133,55.00578994125621 A 75,75 0 0 1 109.99999999999999,55 L 109.99999999999999,85 A 45,45 0 0 0 109.4408535438688,85.00347396475372 Z" fill="#C6538C"/>
  
      <rect x="220" y="46" width="12" height="12" rx="3" fill="#3178C6"/>
      <text x="240" y="56" font-family="-apple-system, BlinkMacSystemFont, 'Segoe UI', Roboto, sans-serif" font-size="12" font-weight="500" fill="#E6EDF3">TypeScript</text>
      <text x="460" y="56" font-family="-apple-system, BlinkMacSystemFont, 'Segoe UI', Roboto, sans-serif" font-size="12" font-weight="500" fill="#7D8590" text-anchor="end">52.4%</text>
      <rect x="220" y="66" width="12" height="12" rx="3" fill="#B07219"/>
      <text x="240" y="76" font-family="-apple-system, BlinkMacSystemFont, 'Segoe UI', Roboto, sans-serif" font-size="12" font-weight="500" fill="#E6EDF3">Java</text>
      <text x="460" y="76" font-family="-apple-system, BlinkMacSystemFont, 'Segoe UI', Roboto, sans-serif" font-size="12" font-weight="500" fill="#7D8590" text-anchor="end">21.8%</text>
      <rect x="220" y="86" width="12" height="12" rx="3" fill="#AA6746"/>
      <text x="240" y="96" font-family="-apple-system, BlinkMacSystemFont, 'Segoe UI', Roboto, sans-serif" font-size="12" font-weight="500" fill="#E6EDF3">Solidity</text>
      <text x="460" y="96" font-family="-apple-system, BlinkMacSystemFont, 'Segoe UI', Roboto, sans-serif" font-size="12" font-weight="500" fill="#7D8590" text-anchor="end">16.9%</text>
      <rect x="220" y="106" width="12" height="12" rx="3" fill="#F1E05A"/>
      <text x="240" y="116" font-family="-apple-system, BlinkMacSystemFont, 'Segoe UI', Roboto, sans-serif" font-size="12" font-weight="500" fill="#E6EDF3">JavaScript</text>
      <text x="460" y="116" font-family="-apple-system, BlinkMacSystemFont, 'Segoe UI', Roboto, sans-serif" font-size="12" font-weight="500" fill="#7D8590" text-anchor="end">5.6%</text>
      <rect x="220" y="126" width="12" height="12" rx="3" fill="#3572A5"/>
      <text x="240" y="136" font-family="-apple-system, BlinkMacSystemFont, 'Segoe UI', Roboto, sans-serif" font-size="12" font-weight="500" fill="#E6EDF3">Python</text>
      <text x="460" y="136" font-family="-apple-system, BlinkMacSystemFont, 'Segoe UI', Roboto, sans-serif" font-size="12" font-weight="500" fill="#7D8590" text-anchor="end">1.6%</text>
      <rect x="220" y="146" width="12" height="12" rx="3" fill="#A371F7"/>
      <text x="240" y="156" font-family="-apple-system, BlinkMacSystemFont, 'Segoe UI', Roboto, sans-serif" font-size="12" font-weight="500" fill="#E6EDF3">Clarity</text>
      <text x="460" y="156" font-family="-apple-system, BlinkMacSystemFont, 'Segoe UI', Roboto, sans-serif" font-size="12" font-weight="500" fill="#7D8590" text-anchor="end">0.7%</text>
      <rect x="220" y="166" width="12" height="12" rx="3" fill="#A371F7"/>
      <text x="240" y="176" font-family="-apple-system, BlinkMacSystemFont, 'Segoe UI', Roboto, sans-serif" font-size="12" font-weight="500" fill="#E6EDF3">EJS</text>
      <text x="460" y="176" font-family="-apple-system, BlinkMacSystemFont, 'Segoe UI', Roboto, sans-serif" font-size="12" font-weight="500" fill="#7D8590" text-anchor="end">0.7%</text>
      <rect x="220" y="186" width="12" height="12" rx="3" fill="#C6538C"/>
      <text x="240" y="196" font-family="-apple-system, BlinkMacSystemFont, 'Segoe UI', Roboto, sans-serif" font-size="12" font-weight="500" fill="#E6EDF3">SCSS</text>
      <text x="460" y="196" font-family="-apple-system, BlinkMacSystemFont, 'Segoe UI', Roboto, sans-serif" font-size="12" font-weight="500" fill="#7D8590" text-anchor="end">0.2%</text>
</svg>